<svg xmlns="http://www.w3.org/2000/svg" viewBox="0 0 720 400" role="img" aria-labelledby="title desc">
  <title id="title">Evaluation Framework abstract preview</title><desc id="desc">A conceptual framework linking measurement, analysis, and program outcomes without client data.</desc>
  <rect width="720" height="400" rx="28" fill="#f0ece4"/>
  <text x="44" y="52" fill="#405669" font-family="Arial,sans-serif" font-size="13" font-weight="700" letter-spacing="2">EVALUATION FRAMEWORK</text>
  <text x="44" y="78" fill="#7d858b" font-family="Arial,sans-serif" font-size="11">Conceptual portfolio diagram · no confidential ACS materials</text>
  <g font-family="Arial,sans-serif">
    <rect x="44" y="126" width="176" height="152" rx="18" fill="#fbfaf7" stroke="#d9d6cf"/><circle cx="74" cy="158" r="12" fill="#8b6b56"/><text x="98" y="163" fill="#29343b" font-size="16" font-weight="700">Measurement</text><text x="64" y="208" fill="#697279" font-size="12">Satisfaction</text><text x="64" y="232" fill="#697279" font-size="12">Understanding</text><text x="64" y="256" fill="#697279" font-size="12">Voice &amp; experience</text>
    <path d="M232 202h54" stroke="#405669" stroke-width="2"/><path d="m279 195 10 7-10 7" fill="none" stroke="#405669" stroke-width="2"/>
    <rect x="298" y="126" width="136" height="152" rx="68" fill="#405669"/><text x="333" y="194" fill="#fff" font-size="17" font-weight="700">Analysis</text><text x="328" y="220" fill="#dfe7ea" font-size="11">patterns · models</text>
    <path d="M446 202h54" stroke="#405669" stroke-width="2"/><path d="m493 195 10 7-10 7" fill="none" stroke="#405669" stroke-width="2"/>
    <rect x="512" y="126" width="164" height="152" rx="18" fill="#fbfaf7" stroke="#d9d6cf"/><circle cx="542" cy="158" r="12" fill="#8b6b56"/><text x="566" y="163" fill="#29343b" font-size="16" font-weight="700">Outcomes</text><text x="532" y="208" fill="#697279" font-size="12">Client feedback</text><text x="532" y="232" fill="#697279" font-size="12">Program learning</text><text x="532" y="256" fill="#697279" font-size="12">Placement stability</text>
    <text x="238" y="334" fill="#7d858b" font-size="11" letter-spacing="1">MEASUREMENT → ANALYSIS → PROGRAM OUTCOMES</text>
  </g>
</svg>
